<?xml version="1.0" encoding="UTF-8" standalone="no"?>
<!-- Generator: Adobe Illustrator 19.2.1, SVG Export Plug-In . SVG Version: 6.00 Build 0)  -->

<svg
   xmlns:dc="http://purl.org/dc/elements/1.1/"
   xmlns:cc="http://creativecommons.org/ns#"
   xmlns:rdf="http://www.w3.org/1999/02/22-rdf-syntax-ns#"
   xmlns:svg="http://www.w3.org/2000/svg"
   xmlns="http://www.w3.org/2000/svg"
   xmlns:sodipodi="http://sodipodi.sourceforge.net/DTD/sodipodi-0.dtd"
   xmlns:inkscape="http://www.inkscape.org/namespaces/inkscape"
   version="1.1"
   id="layer"
   x="0px"
   y="0px"
   viewBox="0 0 652 652"
   style="enable-background:new 0 0 652 652;"
   xml:space="preserve"
   sodipodi:docname="stackpath-logo-vector.svg"
   inkscape:version="0.92.5 (2060ec1f9f, 2020-04-08)"><metadata
   id="metadata155"><rdf:RDF><cc:Work
       rdf:about=""><dc:format>image/svg+xml</dc:format><dc:type
         rdf:resource="http://purl.org/dc/dcmitype/StillImage" /></cc:Work></rdf:RDF></metadata><defs
   id="defs153" /><sodipodi:namedview
   pagecolor="#ffffff"
   bordercolor="#666666"
   borderopacity="1"
   objecttolerance="10"
   gridtolerance="10"
   guidetolerance="10"
   inkscape:pageopacity="0"
   inkscape:pageshadow="2"
   inkscape:window-width="1294"
   inkscape:window-height="704"
   id="namedview151"
   showgrid="false"
   inkscape:zoom="0.80674847"
   inkscape:cx="326"
   inkscape:cy="326"
   inkscape:window-x="72"
   inkscape:window-y="27"
   inkscape:window-maximized="1"
   inkscape:current-layer="layer" />
<style
   type="text/css"
   id="style108">
	.st0{fill:#1D1E22;}
	.st1{fill:#FFFFFF;}
	.st2{fill:url(#SVGID_1_);}
	.st3{fill:url(#SVGID_2_);}
</style>

<g
   id="g148">
	<path
   class="st1"
   d="M280.8,330.9l0.1,0.3c-0.3,7.8-2.6,13.7-6.8,17.8c-4.3,4.1-10.4,6.1-18.5,6.1c-8.1,0-14.7-2.5-19.8-7.5   c-5.1-5-7.6-11.6-7.6-19.6v-13.8c0-8,2.4-14.5,7.3-19.6c4.9-5,11.2-7.6,19.1-7.6c8.3,0,14.6,2.1,19,6.3c4.4,4.2,6.9,10.2,7.4,18   l-0.1,0.3H266c-0.2-4.3-1.2-7.5-2.9-9.6c-1.7-2.1-4.6-3.1-8.7-3.1c-3.5,0-6.2,1.4-8.2,4.2c-2,2.8-3,6.5-3,11v13.9   c0,4.6,1.1,8.3,3.2,11.1c2.2,2.8,5.1,4.2,8.9,4.2c3.7,0,6.3-1,7.8-3c1.5-2,2.4-5.1,2.6-9.4L280.8,330.9L280.8,330.9z"
   id="path112" />
	<path
   class="st1"
   d="M103.7,336.5c0-2.3-0.8-4.1-2.3-5.4c-1.5-1.3-4.3-2.6-8.3-4c-8.3-2.6-14.4-5.5-18.4-8.5c-4-3-6-7.4-6-13.1   c0-5.5,2.4-10,7.1-13.5c4.8-3.4,10.8-5.1,18.1-5.1c7.3,0,13.2,1.9,17.9,5.7c4.6,3.8,6.9,8.6,6.7,14.6l-0.1,0.3h-14.8   c0-2.6-0.9-4.8-2.7-6.4c-1.8-1.6-4.2-2.5-7.4-2.5c-3.1,0-5.5,0.7-7.2,2s-2.6,3-2.6,5c0,1.9,0.9,3.5,2.6,4.7   c1.8,1.2,5.1,2.6,9.9,4.4c7.5,2.2,13.1,5,16.8,8.3s5.7,7.8,5.7,13.5c0,5.8-2.2,10.4-6.7,13.7c-4.5,3.3-10.5,4.9-17.9,4.9   c-7.5,0-13.9-1.9-19.3-5.7c-5.4-3.8-8.1-9.2-7.9-16.3l0.1-0.3H82c0,3.8,1,6.5,3.1,8.2c2,1.6,5.1,2.5,9.3,2.5c3.2,0,5.5-0.6,7.1-1.9   C103,340.2,103.7,338.6,103.7,336.5"
   id="path114" />
	<polygon
   class="st1"
   points="122.5,287.4 122.5,300.5 140.5,300.5 140.5,354.4 154.1,354.4 154.1,300.5 172,300.5 172,287.4  "
   id="polygon116" />
	<polygon
   class="st1"
   points="449.2,287.4 449.2,300.5 467.1,300.5 467.1,354.4 480.8,354.4 480.8,300.5 498.6,300.5 498.6,287.4     "
   id="polygon118" />
	<polygon
   class="st1"
   points="543.7,287.4 543.7,314.3 521.6,314.3 521.6,287.4 508,287.4 508,354.4 521.6,354.4 521.6,327.4    543.7,327.4 543.7,354.4 557.3,354.4 557.3,287.4  "
   id="polygon120" />
	<path
   class="st1"
   d="M364.3,331.4v23h-15.5v-67.1h24.9c7.9,0,14.2,2,18.8,6.1c4.6,4.1,6.9,9.4,6.9,16c0,6.6-2.3,11.9-6.9,16   c-4.6,4-10.9,6.1-18.8,6.1L364.3,331.4L364.3,331.4z M364.3,319.5h9.4c3.4,0,5.9-0.9,7.7-2.8c1.8-1.9,2.6-4.2,2.6-7.2   c0-3-0.9-5.4-2.6-7.3c-1.8-1.9-4.3-2.9-7.7-2.9h-9.4V319.5z"
   id="path122" />
	<path
   class="st1"
   d="M339.4,351.3c-7.8-9.1-20-23.1-26.4-30.6l26.4-30.7v-2.6h-4.2H324c-7.1,8.4-14.1,16.4-21.2,24.8v-24.8h-13.5   v67.1h13.5v-24.8l21.3,24.8h11.1h4.2L339.4,351.3L339.4,351.3z"
   id="path124" />
	<polygon
   class="st1"
   points="417.6,287.4 394.5,354.4 409,354.4 432.6,287.4  "
   id="polygon126" />
	<polygon
   class="st1"
   points="189.2,287.4 166.1,354.4 180.6,354.4 204.2,287.4  "
   id="polygon128" />
	
		<linearGradient
   id="SVGID_1_"
   gradientUnits="userSpaceOnUse"
   x1="-130.0183"
   y1="593.3676"
   x2="-131.1685"
   y2="594.0352"
   gradientTransform="matrix(14.298 0 0 -22.802 2075.3821 13864.5791)">
		<stop
   offset="5.550000e-002"
   style="stop-color:#FFFFFF"
   id="stop130" />
		<stop
   offset="1"
   style="stop-color:#FFFFFF;stop-opacity:0.2"
   id="stop132" />
	</linearGradient>
	<polygon
   class="st2"
   points="204.2,287.4 197,307.9 204.2,328.5 189.7,328.5 185.1,341.6 208.3,341.6 212.7,354.4 227.1,354.4  "
   id="polygon135" />
	
		<linearGradient
   id="SVGID_2_"
   gradientUnits="userSpaceOnUse"
   x1="-119.477"
   y1="593.3676"
   x2="-120.6273"
   y2="594.0352"
   gradientTransform="matrix(14.299 0 0 -22.802 2153.1946 13864.5791)">
		<stop
   offset="5.550000e-002"
   style="stop-color:#FFFFFF"
   id="stop137" />
		<stop
   offset="1"
   style="stop-color:#FFFFFF;stop-opacity:0.2"
   id="stop139" />
	</linearGradient>
	<polygon
   class="st3"
   points="432.6,287.4 425.4,307.9 432.6,328.5 418.1,328.5 413.5,341.6 436.7,341.6 441.1,354.4 455.5,354.4     "
   id="polygon142" />
	<polygon
   class="st1"
   points="566.8,288.5 564.7,288.5 564.7,294.1 563.3,294.1 563.3,288.5 561.3,288.5 561.3,287.4 566.8,287.4     "
   id="polygon144" />
	<polygon
   class="st1"
   points="569.4,287.4 571.1,292.2 572.8,287.4 574.6,287.4 574.6,294.1 573.2,294.1 573.2,292.2 573.3,289.1    571.5,294.1 570.6,294.1 568.8,289.1 568.9,292.2 568.9,294.1 567.6,294.1 567.6,287.4 569.4,287.4  "
   id="polygon146" />
</g>
</svg>